<?xml version="1.0" encoding="UTF-8"?>
<svg version="1.1" viewBox="0 0 2000 2000" width="1280" height="1280" xmlns="http://www.w3.org/2000/svg">
<path transform="translate(464,488)" d="m0 0 36 3 37 5 34 6 31 8 33 11 24 10 25 12 13 8 23 16 15 14 13 18 8 15 4 14 1 13v871l-5 1-36-3-33-5-35-6-27-7-26-8-26-10-30-14-20-12-18-13-12-11-9-10-10-15-7-14-3-10-1-8v-878z" fill="#F38525"/>
<path transform="translate(1406,489)" d="m0 0h17l1 1-1 878-4 16-5 12-14 21-10 11-11 9-19 13-15 9-25 12-28 11-24 8-31 8-26 5-33 5-46 5h-6l-1-7 1-874 4-16 7-16 9-12 11-12 9-9 14-10 17-11 14-8 25-11 29-11 18-6 32-8 27-5 35-5z" fill="#F38525"/>
<path transform="translate(895,764)" d="m0 0h66l50 1 14 3 16 7 11 8 10 9 10 10 9 13 7 15 4 14 1 7v430l-3 18-5 12-6 12-8 11-14 14-14 9-13 6-17 4-10 1h-120l-15-2-18-6-12-7-11-9-7-6-8-10-9-15-5-15-3-19-1-43v-296l1-86 2-14 5-16 10-18 6-7h2l2-4 8-7 10-9 15-8 15-5 5-1z" fill="#F38525"/>
<path transform="translate(1406,489)" d="m0 0h17l1 1-1 878-4 16-5 12-8 12-5 4-7 9-8 5-6 7-7 2-4 3h-2v2l-10 4-5 4h-4v2l-4 3-5 1-4 2-6 2v-3l-7 1-3 3-7-1 3-4-1-1v-6l-2 4h-2v-6l-2-3 6-2v-7l2-4-1-3v-5l5-11v-6l3-7 1-9-1-6h2l2 2 1-3v-2h-2v-5l4-1v2l4-1-1-5 1-2h-3l2-13 3-1-1-8 3-1-1-7-1-9-2-16v-8l3-13h2v-5l-1-2 1-2h2l-2-9 1-5v-13l1-10-1-3h2v-17l-2-1h2v-125l1-18-1-15 1-32-1-10v-103l1-3v-45l-1-17 1-6-1-7v-10l2-11-2-10v-42l-2-32 1-4-1-1v-5l1-5-1-5-1-4v-8l-2-9 1-2-1-15h2l-1-7v-9l-2-3v-13l1-4-1-4-2-1 1-6h1l1-10v-18l1-2v-10l-1-7 2-15 2-10v-12l-2-9v-10l-3-6-3-2v-2l-6-1-8 2-11-1 2-4 4-4 12-5 16-4 13-2 9-3v-2l9-1v-2l12-2z" fill="#EF6625"/>
<path transform="translate(464,488)" d="m0 0 36 3 14 2-4 2 11 1 1 1 9 1 4 2 6 2 12 3v2l6 1 5 2-1 2h-7v-2l-6 1 3 3v6l-1 2-6 1-2 5-3 4v8l-2 1-2 7v14l2 6-1 8 2 7v18l-1 4v28l-1 2 2 9-1 2 2 1-3 2-2-1v6h2l1-2v5h-3v6l4 2-1 6-2 1-1 23 1 8v12l1 9v7l-1 5 2 8-1 2-1 20 2 6-2 3 1 10-1 10 1 6v9l-2 18v7l2 8-1 7v10l-1 6 1 10v12l-1 5 2 6-1 4v28l1 7-2 19 1 15v13l-1 9 1 22v37l1 6-1 10v75l-1 4 1 3v31 4l1 11-1 21 1 2-1 13 1 9v19l-1 3 1 3v14l2 4-1 10 1 19 1 5-2 12h3l1 4-3 1-1 7v6h3l1 8-1 5 1 4-1 3h2l-1 12 1 21 2 1 3 12 1 5h-2l1 12-2 9 15 9v2l4 1 6 4 5 2v2l2 1 3 3-2 2-5-1-15-6-13-5-10-5-5-1v-2l-6-2-10-5-6-4-10-9-6-5v-2l-4-2-2-4h-4l-10-15-7-14-3-10-1-8v-878z" fill="#EF6625"/>
<path transform="translate(895,764)" d="m0 0h66l50 1 14 3 16 7 11 8 10 9 10 10 9 13 7 15 4 14 1 7v430l-3 18-5 12-6 12-8 11-14 14-14 9-13 6-17 4-10 1h-120l-15-2-18-6-12-7-11-9-7-6-8-10-9-15-5-15-3-19 1-6 2 1v5h2l1 7 2 5 2 7 7 11 7 9 2 1v2h2v2l12 6 7 5 3 5 3 3 1 7 5 2 3 3 20 5 10 1h14l-21-5-5-5h-3l-7-5-1-3h9l-2-3-3-2 4-1-1-4 3-1 2 2v4l5 1 3 4 9 4v2h-7v2h7l3-2 5 1v2l11-1 4-1 10 2 7 1 3-1 3 1h12l4-2h7l9-3 2 1h8l5 1h18l3-2h3v-2l4-1 2-4 4 1v-3l4-1 1 4 3-2h3l1-4-5-1-3-3v-2l2-1v-2h-3l1-5 4-2v4h4l1 3-1 2 4-1-2-6 3-1h3l2-5 3-3 4-1 1-4h5v2l8-7 3-1v2l5-5 4-7 1-8-3-3v-2h2l1-9 1-10v-11l1-12 3-1 1 10 1 21h2l-1 5 1 4-1 11-2 8-2-2-5 12v4l-2 4-2 3h-2l-2 4-8 8-3 1-1 2-7 4-6 5-3 5-6 4-5 2-11 4-2 1h-3l-20 4v1h12l16-2 9-3 11-6 12-9 6-5 5-5 5-6 2-3 7-11 6-12 3-8 1-13 1-1v-31l-1-1v-14-3l-1-33-1-18v-193l1-40-1-41v-48l1-2-2-10-2-6-6-11v-2h-2v-3h-2l-4-6-4-4v-2h-4l-4-7-5-5-5-4v-2l-5-2-3-2v-2l-6-1-2-2-4-1v-2l-5-1-15-5h-104l-11 1-12 2-11 6-7 4-2 5-4 7-5 9-1 5 2 1v6h4l1-5 4-1 1 5-7 4-2 3-4 4h-2l-1 7-6 2-1 1v11l2 1v2l3-1-2 5-3 3h-3l1 1h2v3l5-1 1-2h3l3 5-1 7 3 1 5-2 3 3-5 6 2 5h2l-2 11-2-1-4 1-1 4h1l5 2v4l-6 1v3l4 4v4h-2v2l-3-1-1-6-8-3 2-1-1-13 3-1-1-8-4 1v-11h-6l-2-1v-2h2v-6l-2-2-4 2v-5l-4-2v-8l-2-8 3-3-1-1-5 1-1-4 2-8v-9l2-4h2v-6h-3l-2 7-3 2-4 8-2 2-3 12-2 13-3 8-1 9-2 5h-1l-1-5-1-18 2-14 5-16 10-18 6-7h2l2-4 8-7 10-9 15-8 15-5 5-1z" fill="#FA9928"/>
<path transform="translate(651,528)" d="m0 0 10 4 23 11 13 8 23 16 15 14 13 18 8 15 4 14 1 13v871l-5 1-36-3v-3l11 1v-2l5-3 9-2 6 1-1-8v-9l1-2-1-7 2-13v-56l2-50v-37l-1-51v-337l1-33v-116l-1-43-1-22v-25l-2-4 1-13-2-6v-30l2-3v-8l-3-7-3-3-7-13v-2h-2v-4h-2l-4-6v-2h-2l-4-7-3-3v-2h-3l-6-7-5-5v-2h-2l-2-5-4-1v-2l-4-1-4-2v-2h-2l-1-2-7-3-10-7-20-10z" fill="#EE9D2B"/>
<path transform="translate(1455,636)" d="m0 0h83l1 2v31l-1 27-3 6-6 7-14 9-17 7-24 6-13 2h-6l-1-8v-86z" fill="#70B848"/>
<path transform="translate(1455,488)" d="m0 0 19 2 19 4 20 7 11 6 9 8 5 9 1 18v40l-2 1h-82l-1-6v-24z" fill="#70B848"/>
<path transform="translate(812,852)" d="m0 0 1 3 1 4 1 3-1 3h-2l1 4 2 2 2 11v2l-5 1 1 8 2-3 4 1v10l-2 1-1-2v8h2v-5l2 1v2l4 2-2 4-1 5 3 4 5 1-2 4-3 2v5l4 2 1 6-5 1-4 2 1 5 2 1 1-3h4v8l2 10 2 1v3l-1 13-1 3 2 3-7 2-5 1v12l1 5-2 13v5h3v6l-3-1v7l2 1-2 3 1 8-1 7v13l-1 14 1 11v33l1 19v12l-1 4 1 12 1 3v7l-2 5 1 6 3 6-1 5v17l6 2v-10l-1-3 1-3-5-2 2-5 4-2-3-2v-4h5l2-2 3 12 5 3 1 3-3 4 3 1v10l1 1v12l3 3-1 3-4-2-2 2-3-2-3-10 1-4 1 1 1-2-5-2-2 5-3 2-1 6 7-1 3 3v3l-3 3v6l-5 1v4h3l1 13 4 1v10l-3 3-3 1-4 10-5 4 1 5-1 5-5-4-6-14 1-4 2 6 3-3 1-13-2-1 1-8v-7l4-1-1-8-3-10v-3l2-3-2-3 2-4-1-1v-13l1-5-2-3-1-35 1-14-1-18 1-14v-21l-1-7 1-6v-72l-1-5v-40l-1-20v-15l-1-2 1-2h-2l-1-8 1-3-2-8-1 3-1 7v12h-1l-1 12 1 9v12l-1 5v39l-2 41v55l1 15v35l-1 8v66l2 27 2 6-1 4-1-2h-3l-4-4-1-5h4l-1-4v-10h-2l-1-16v-301l2 1v2h3l1-4-1-7v-11l-1-5v-10l2 3 3-1h1l1-6-1-9-1-4 3-16 1-10z" fill="#FD9B27"/>
<path transform="translate(1205,541)" d="m0 0v3l-4 2-3 3-5 3-8 8h-3l-2 6h-2v2l-5 5-6 7-7 9-4 7-5 11-2 6-4 5-3 11-2 1v8l-1 5v1l-1 7h-1l-3 17-1 3-1 35-1 21-1 4v4h-2l-1 3-1-106 4-16 7-16 9-12 11-12 9-9 14-10 17-11z" fill="#F89C29"/>
<path transform="translate(1080,980)" d="m0 0h2v8 2 15l-1 40v116l-1 11h2l-1 21h-1l-2-33-1-10v-24h-2v-2h-2l1-3h2v-6l-1-3 1-4h-3l1 6-2 4v-18l-1-15v-33-3-10l-1-10 1-14 2 3 2-4 1 1 1-2 1-28z" fill="#FD9B27"/>
<path transform="translate(1421,769)" d="m0 0 2 1v598l-2-1-1-405z" fill="#F27F25"/>
<path transform="translate(1318,1056)" d="m0 0 8 3v3h-5v3l5 1-1 4-4 1-1 5 2 3-2 4 5 3 3 3-2 1h-4l1 7-3 5 2 4-3 8h2v2l4-4 3 1-1 5v1l1 2-1 2-3-1-3-2 1 7-4 9-2-3v-3h-5l-3 5-1-3-3-7 1-10 1-2h2v-2l-2-1-1-4 1-5-1-1v-13l5-5h-2v-5l2 1v2h2l1 7 2 1v-3h2l-3-3 1-8-1-2-3 1-1 2h-3l-1-4 1-2-2-1 2-5-1-2 6-1 4 1z" fill="#F06625"/>
<path transform="translate(1320,909)" d="m0 0 7 2 1 3h-8v5l2 2-1 5-1 2 4 2 1 4-3 1-2 14 4 2v2h-3l2 9h-2l1 8-1 6 1 1v11l5 4v2l-6-1v7l-2 5h-2l-4-4-5 5-4-9 1-10 1-2 5 1 3 3v-11l1-4-3-2-2 6 2 1h-2l-1 3h-4v-24l4-4h-2l1-4 4-1 1 4-1 6 5-2-2-2-1-2 1-7-2-7 3-6v-6l-3-3h3v-6l-2-2 1-4z" fill="#F06625"/>
<path transform="translate(893,867)" d="m0 0h2v2h2l1 4-3 4 2 19-1 4 1 1v11h-2l1 4h-2l-1 2-1-1-3 19-1 22v11l-2 2-2-4-2-28v-33l2-12v-6l-1-6h-2l-4 7h2l1 5-5-2-4 1-2-4 3-6 4-1 5-3h2l1-2h2l4-8z" fill="#FD9B27"/>
<path transform="translate(834,860)" d="m0 0h4v3l5-1 1-2h3l3 5-1 7 3 1 5-2 3 3-5 6 2 5h2l-2 11-2-1-4 1-1 4h1l5 2v4l-6 1v3l4 4v4h-2v2l-3-1-1-6-8-3 2-1-1-13 3-1-1-8-4 1v-11h-6l-2-1v-2h2v-6l-1-6z" fill="#FD9B27"/>
<path transform="translate(550,673)" d="m0 0 3 1 1 8v12l1 3 1 25v8l3 1v2l-2 1v23l1 5-1 4 1 4v7l-2 6 2 6h-3l-1-2h-3l-1-9-1-6 1-15 1-5v-28l-1-8 1-4v-10l-2-6v-7l-1-6 1-9z" fill="#F06625"/>
<path transform="translate(1320,1211)" d="m0 0 1 2 2 1-1 5-1 1 5 2-1 5 1 6-2 4h-2l3 5v7l1 1v5l-1 5v9l1 4-1 7h-4l-1-8-3-1v-6l5-1v-3l-4-1-1 3-1-5v-30l-2-6h-3v-5h5l-1-3z" fill="#F06725"/>
<path transform="translate(939,773)" d="m0 0h55l10 3v2l8 1 1 3 4-2 5 1 6 5 1 5h-2l-1 2-5-5-3-1-5 1-8-1-1-2h5l1-1-9-2-12-1-9-2-5-1v-2l-3 2h-6v-1l-29-1-10-1v-1z" fill="#FE9C28"/>
<path transform="translate(922,869)" d="m0 0 5 1 3 3 3 15-1 12-3 15-2-2-2-8h-2l-1 3-3-16 1-16 1-4-2-1h3z" fill="#FE9C28"/>
<path transform="translate(1063,819)" d="m0 0 3 1 12 16 3 11 1 8-1 4v14l2 13v11l-1 4 1 7-3 3-1-28v-7l-2-5-3 4-1-8 2-5 3-1 1-8-1-4-3-10-5-4v14l-2-1-1-9-3-5-1-6 2-2z" fill="#FE9C28"/>
<path transform="translate(810,952)" d="m0 0 2 1 1 18v28l-1 15v25l-1 10-2-1v-28l-1-13 2-5h-1l-1-5-1-26v-14z" fill="#FD9B27"/>
<path transform="translate(1e3 1041)" d="m0 0 2 1v66l1 23v23l-1 14-2 9-1 9-1 2-1 16h-1l-2-23 1 2h2l2-26z" fill="#FE9C28"/>
<path transform="translate(1128,1496)" d="m0 0 5 3 2 5h2l2 2h28l9-1h9l1 2-44 5-16 1-1-7 1-5h2z" fill="#EE9D2B"/>
<path transform="translate(1318,1184)" d="m0 0 8 3v3l-4 1-1 2 2 1-4 8 2 4 2-5v-6h4v8l-1 5-5 2h-4l-1-4 1-5-7-1v3h-2v-3h-3v-5h2l-1-7 4 1 1-3 5 3z" fill="#F06625"/>
<path transform="translate(549,926)" d="m0 0h7l2 5-1 10 1 6-1 7-1 8-6 2-2-7 1-1z" fill="#F06625"/>
<path transform="translate(550,797)" d="m0 0h8v10l-1 7 2 2v3h-2v16l-3-2v-3l-4 5-1-6v-31z" fill="#F06625"/>
<path transform="translate(996,909)" d="m0 0 2 2v14l1 9 1 6v28l1 20v8l-3-2-1-21-2-15 1-19-2-9 1-5-2-5 1-10z" fill="#FE9C28"/>
<path transform="translate(1028,782)" d="m0 0h2v2l4 1 12 11 3 4v3h-2l1 4 1 2-13 1-6-1-2-5 1-3h13l-2-6-5-5-4-1-2-2v-2z" fill="#FD9B27"/>
<path transform="translate(1127,1316)" d="m0 0h1l1 30v124l1 1v10l1 2v6l-4 1z" fill="#FE9C28"/>
<path transform="translate(1308,1018)" d="m0 0 2 2v9l6 4-3 6 7-1 2 4h-2l-1 7h2l-1 5-3 1-1-4v-5l-6-1-1 2h-2l-1-11v-5-3l1-8z" fill="#F06625"/>
<path transform="translate(832 1e3)" d="m0 0 3 1-2 5h3l2 7-1 1v6l-2 3 2 1-2 3-5-1v-3l2-3h2l-1-5h-6l-4 2 1-8-1-7z" fill="#FD9A27"/>
<path transform="translate(1315,713)" d="m0 0 4 2 4 3h4v7l2 5-4 6-3-1v3l-5 1-1-11 2-6 1-4-2-1v-2h-2z" fill="#F06625"/>
<path transform="translate(871,897)" d="m0 0 7 6v8l-3 16-2 17h-1l-2-18v-28z" fill="#FE9C28"/>
<path transform="translate(944,1176)" d="m0 0h2l1 9 3 9v9l-3 5-1 30-3-1v-34z" fill="#FE9C28"/>
<path transform="translate(1319,883)" d="m0 0 4 2 1 4 4 4 1 7-4 3h-2l2-8-4 1-1 4 2 4h2v2h-7l-1-4 1-2-3-6v-3h2l1-4h2z" fill="#F06625"/>
<path transform="translate(550,888)" d="m0 0 8 1-2 3h-3l2 3 3 1v8l-3 7-4 1-1 2-1-8v-17z" fill="#F06625"/>
<path transform="translate(1128,925)" d="m0 0 3 2v54l-1 7-2-1z" fill="#FE9C28"/>
<path transform="translate(556,1142)" d="m0 0 1 4-1 2h-3l1 3 2-1 2 10-2 7-6 4-1-15v-7l1-5 5 1z" fill="#F06625"/>
<path transform="translate(1317,1295)" d="m0 0 5 1v2h2v9l1 3-2 3h2l-1 6 1 7-1 2-3-1-2-5 1-6-3-1 2-5-2-8 2-2h-2v-2l-2-1h2z" fill="#F06625"/>
<path transform="translate(642,1494)" d="m0 0 27 5 24 4 13 2 5 1-4 2-20-3-35-6-9-2z" fill="#DDA02E"/>
<path transform="translate(840,1251)" d="m0 0 5 2 2 3-1 7 7 1 1 2-5 1-2 5h-3l-2-3-1-8h-3l1-6z" fill="#FE9C28"/>
<path transform="translate(1307,892)" d="m0 0 3 1-1 6-1 2h2v2l4 1-1 9-1 2h-2v2l-5-1 1-10-1-6 1-7z" fill="#F06625"/>
<path transform="translate(1017,780)" d="m0 0 5 1 6 5 1 5h-2l-1 2-5-5-3-1-5 1-8-1-1-2h5l2-3 6-1z" fill="#FD9A27"/>
<path transform="translate(552,1122)" d="m0 0 1 2h2v-2h3l-1 11v5l-7 3-1-9v-8z" fill="#F06625"/>
<path transform="translate(825,1168)" d="m0 0 8 4v8l3 1v5l-4 1-5-5h-2l-1-4 1-5z" fill="#FE9C28"/>
<path transform="translate(1328,1443)" d="m0 0 1 4 5-1 9-2 4-1 3 1-14 8-3 1-9-2 2-5z" fill="#F48525"/>
<path transform="translate(907,886)" d="m0 0 3 2-1 4v2 4l-1 4 1 3h-2l-2 11h-2v-18l2-7v-4z" fill="#FD9B27"/>
<path transform="translate(933,876)" d="m0 0h3v23l-4 24-1 5-2-4-1-4 2-1 1-9 2-10v-17l-1-6z" fill="#FE9C28"/>
<path transform="translate(549,1104)" d="m0 0 8 1v13l-1 2-7 2z" fill="#F06625"/>
<path transform="translate(956,919)" d="m0 0h1v8l3 3-1 3v3l1 4-4-1 1 8-3 2-1-4 1-10-2-5v-8z" fill="#FE9C28"/>
<path transform="translate(549,840)" d="m0 0h9v7h-2l1 6-5 3h-2l-2-8z" fill="#F06625"/>
<path transform="translate(809 1e3)" d="m0 0h3v36l-1 10-2-1v-28l-1-13z" fill="#FE9C28"/>
<path transform="translate(1072,1198)" d="m0 0 4 2v8l1 1v9l-4 3v6l-2-3-1-6 2-3-1-14z" fill="#FE9C28"/>
<path transform="translate(557,860)" d="m0 0 1 3h-5l1 3-1 3 4 1-1 7-5 1v6h-1l-1-12v-10l3-1z" fill="#F06625"/>
<path transform="translate(1308,1147)" d="m0 0 2 2-1 7 1 3 3 1v7l1 2-3 1-1 3-3-1-1-5h3l-3-5-1-5z" fill="#F06625"/>
<path transform="translate(832,1132)" d="m0 0 5 5-2 10h-4l1-6h-7l-1-6z" fill="#FE9C28"/>
<path transform="translate(865,1278)" d="m0 0 5 2-2 1v6l-5 3v3l-6-1v-3l2-5v-2l3-1z" fill="#FE9C28"/>
<path transform="translate(1325,688)" d="m0 0 2 4v9l-1 7-5-1-1-8 2-7 1-3z" fill="#F06625"/>
<path transform="translate(885,992)" d="m0 0 3 1 1 4 2 1-1 7-1 11v6h-2l-1-4-1-16-1-7z" fill="#FE9C28"/>
<path transform="translate(1128,871)" d="m0 0 1 2 3 1 1 3-2 19-1 2h-2z" fill="#FD9B27"/>
<path transform="translate(1311,860)" d="m0 0 4 1 2 3 3 1v10h-4l-2-4v-4l-6-2v-2h2z" fill="#F06625"/>
<path transform="translate(1311,925)" d="m0 0h2v12l-2 5 2 1-4 4-1-3h-3v-5h2l1-5 2-2-1-4z" fill="#F06625"/>
<path transform="translate(1079,873)" d="m0 0h2l2 13v11l-1 4 1 7-3 3-1-28z" fill="#FE9C28"/>
<path transform="translate(1075,982)" d="m0 0h2l1 11-1 16-2 4h-1l-1-16 1-2v-12z" fill="#FE9C28"/>
<path transform="translate(549,654)" d="m0 0h2v2h2l1 6-2 5 1 4h-3v2l-3-1v-9z" fill="#F06625"/>
<path transform="translate(1305,1474)" d="m0 0h5l-2 2-30 11-5 1-2-2 29-10z" fill="#DB992E"/>
<path transform="translate(549,969)" d="m0 0h8v4l-3 1-1 3 2 1-1 4-4 2-2-9z" fill="#F06625"/>
<path transform="translate(1317,1016)" d="m0 0 9 1v5l-5 1-4 4-3-4v-4h2z" fill="#F06625"/>
<path transform="translate(555,1210)" d="m0 0 2 1 1 6-3 3v2l-5 1-1-9 2-3z" fill="#F06625"/>
<path transform="translate(642,1494)" d="m0 0 27 5 4 1v2l-10-1-20-4z" fill="#E19C2D"/>
<path transform="translate(925,944)" d="m0 0 2 1v8l2 1v20l-2-4-2-1z" fill="#FD9A27"/>
<path transform="translate(941,1359)" d="m0 0 6 2v1h-41l1-2h29z" fill="#F48525"/>
<path transform="translate(951,1227)" d="m0 0h1v11h2v2h3l-1 6-5 5-1-18z" fill="#FE9C28"/>
<path transform="translate(549,1085)" d="m0 0h8v3l-6 1v4h6l-1 5-6 2-1-12z" fill="#F06625"/>
<path transform="translate(1317,1145)" d="m0 0h7l2 4-1 2h-3-2l-1 3-3-1v-3h-2v-3z" fill="#F06625"/>
<path transform="translate(914,868)" d="m0 0h1v15l-2 3-4-2 1-9 2-2h1z" fill="#FE9C28"/>
<path transform="translate(1406,489)" d="m0 0h17l1 1v12h-1v-7h-2v-2l-4-1h-13l2-1z" fill="#D18D2E"/>
<path transform="translate(891,854)" d="m0 0 7 1 2 3-2 3h-2l-1 2-6-2z" fill="#FE9C28"/>
<path transform="translate(867,791)" d="m0 0 4 2v2l18 2v1l-11 2-10-2-2-4z" fill="#FE9C28"/>
<path transform="translate(990,1354)" d="m0 0h7l-2 2-20 2-12 1v-2l-2 1h-7v-1l13-1z" fill="#F48525"/>
<path transform="translate(1079,861)" d="m0 0h1l1 11h-3l-2-1-2 4-1-8 2-5h3z" fill="#FD9B27"/>
<path transform="translate(1073,950)" d="m0 0 1 4 1 12-2 3-5-2 2-1 1-10 1-5z" fill="#FE9C28"/>
<path transform="translate(651,528)" d="m0 0 10 4 11 5-4 1-5-1-12-6z" fill="#E6952B"/>
<path transform="translate(1232,1496)" d="m0 0 2 1-1 2-22 4-3-1 3-2z" fill="#DB9B2E"/>
<path transform="translate(485,1414)" d="m0 0h3l4 5 2 1v2l4 2v2l4 2 1 2-2 2-10-10z" fill="#D6902C"/>
<path transform="translate(1323,1281)" d="m0 0 2 1-1 9-4 1-1-4h-3v-2l4-4z" fill="#F06625"/>
<path transform="translate(992,1247)" d="m0 0 3 3 1 9-1 5-2-1-2-10-1-4z" fill="#FE9C28"/>
<path transform="translate(1312,1099)" d="m0 0h2l2 3v7l-4 2-2-4 1-7z" fill="#F48525"/>
<path transform="translate(855,1269)" d="m0 0h12v3l-5 3-8-1z" fill="#FE9C28"/>
<path transform="translate(514,493)" d="m0 0 23 3v1h-8l-8-1h-11l-3-2z" fill="#D7842C"/>
<path transform="translate(1027,1319)" d="m0 0 1 4h4l1 3-2 1-3-1-1 3-1-3h-3l1-5z" fill="#FD9B27"/>
<path transform="translate(472,1395)" d="m0 0 5 2 3 6 6 9-2 2-10-15z" fill="#E28829"/>
<path transform="translate(549,998)" d="m0 0 7 1-1 5h-2l-1 2h-3z" fill="#F06625"/>
<path transform="translate(1064,1048)" d="m0 0 4 1v5l2 4-4 1-1-3 1-2-3-1z" fill="#FD9B27"/>
<path transform="translate(1128,907)" d="m0 0 3 1 1 9-3 6h-1z" fill="#FE9C28"/>
<path transform="translate(1327,532)" d="m0 0 4 2-2 9-4-2 1-8z" fill="#F06625"/>
<path transform="translate(550,1257)" d="m0 0 4 1v10l-3 2-1-4z" fill="#F06625"/>
<path transform="translate(913,899)" d="m0 0h3v7l-1 3h-4l1-4-1-2z" fill="#FE9C28"/>
<path transform="translate(1264,1488)" d="m0 0 4 2-18 5-2-1 5-3z" fill="#D39E30"/>
<path transform="translate(974,1216)" d="m0 0h2l1 3-1 7-2 7-2-4 1-5v-6z" fill="#FE9C28"/>
<path transform="translate(549,1069)" d="m0 0 4 4 3 1-1 4h-5l-1-2z" fill="#F06625"/>
<path transform="translate(1321,662)" d="m0 0 7 4-1 4-7 1 1-6z" fill="#F06625"/>
<path transform="translate(696,1504)" d="m0 0 10 1 5 1-4 2-13-2z" fill="#EB9A2B"/>
<path transform="translate(1204,1501)" d="m0 0m-9 1h9v2l-14 2v-2z" fill="#DE9F2E"/>
<path transform="translate(502,1430)" d="m0 0 4 1 7 7-1 2-9-7z" fill="#E98928"/>
<path transform="translate(857,812)" d="m0 0 3 1 1 4-7 4 2-8z" fill="#FE9C28"/>
<path transform="translate(1325,871)" d="m0 0 3 1-1 4 1 4-4-1-1-6z" fill="#F06625"/>
<path transform="translate(908,1356)" d="m0 0 9 1 5 1v1h-14l-3-2z" fill="#F48525"/>
<path transform="translate(552,1307)" d="m0 0h3v12l-2-1-1-4-1-6z" fill="#F06625"/>
<path transform="translate(549,1233)" d="m0 0 2 2 2 4v3l-3 4-2-12z" fill="#F06625"/>
<path transform="translate(711,1506)" d="m0 0 9 1v2h-8l-5-1z" fill="#EE8C29"/>
<path transform="translate(662,1498)" d="m0 0 11 2v2l-10-1-3-2z" fill="#E0992D"/>
<path transform="translate(828,1114)" d="m0 0 5 1 1 2-8 1h-3z" fill="#FE9C28"/>
<path transform="translate(551,1047)" d="m0 0h6v2l-5 3-4-1 1-3z" fill="#F06625"/>
<path transform="translate(907,886)" d="m0 0 3 2-1 4-3 1-1-6z" fill="#FE9C28"/>
<path transform="translate(1318,855)" d="m0 0 5 2 1 2h-2v2h-5z" fill="#F06625"/>
</svg>
